<?xml version="1.0" encoding="UTF-8" standalone="no"?>
<!-- Created with Inkscape (http://www.inkscape.org/) -->

<svg
   xmlns:dc="http://purl.org/dc/elements/1.1/"
   xmlns:cc="http://creativecommons.org/ns#"
   xmlns:rdf="http://www.w3.org/1999/02/22-rdf-syntax-ns#"
   xmlns:svg="http://www.w3.org/2000/svg"
   xmlns="http://www.w3.org/2000/svg"
   xmlns:sodipodi="http://sodipodi.sourceforge.net/DTD/sodipodi-0.dtd"
   xmlns:inkscape="http://www.inkscape.org/namespaces/inkscape"
   version="1.1"
   id="svg3836"
   width="15"
   height="15"
   viewBox="0 0 15 15"
   sodipodi:docname="my_hillfort.svg"
   inkscape:version="0.92.2 (5c3e80d, 2017-08-06)">
  <metadata
     id="metadata3842">
    <rdf:RDF>
      <cc:Work
         rdf:about="">
        <dc:format>image/svg+xml</dc:format>
        <dc:type
           rdf:resource="http://purl.org/dc/dcmitype/StillImage" />
        <dc:title></dc:title>
      </cc:Work>
    </rdf:RDF>
  </metadata>
  <defs
     id="defs3840" />
  <sodipodi:namedview
     pagecolor="#ffffff"
     bordercolor="#666666"
     borderopacity="1"
     objecttolerance="10"
     gridtolerance="10"
     guidetolerance="10"
     inkscape:pageopacity="0"
     inkscape:pageshadow="2"
     inkscape:window-width="1882"
     inkscape:window-height="1051"
     id="namedview3838"
     showgrid="true"
     inkscape:zoom="48.028868"
     inkscape:cx="8.1519542"
     inkscape:cy="7.9816704"
     inkscape:window-x="0"
     inkscape:window-y="0"
     inkscape:window-maximized="1"
     inkscape:current-layer="svg3836"
     showguides="false">
    <inkscape:grid
       type="xygrid"
       id="grid6477" />
  </sodipodi:namedview>
  <path
     inkscape:connector-curvature="0"
     id="path5560-3"
     d="m 15,12 c 0,0.522662 -0.345344,1 -1,1 H 1 C 0.51462145,13 4.283192e-4,12.551996 0,12 -0.00156168,9.9873856 -0.04087971,10.977214 -0.0117638,9.003278 0.03780232,5.6429027 0.97961162,2.6781784 1.4007882,2.1279642 2,1.3451694 2.6929606,1.0032 3.9636901,0.999193 5.0373042,0.99580759 5.5745127,1.2899017 5.9837942,2.0138523 6.467905,2.8701634 6.487848,3.9848076 7.213679,4.6770616 8.5737337,5.9742 9.6031134,6.3896134 11.213703,6 12.004348,5.8087372 13.032109,5.9641378 13.340824,6.2728525 14.034818,6.9668469 14.708225,7.6651758 15,10"
     style="opacity:1;fill:#000000;fill-opacity:1;stroke:none;stroke-width:1;stroke-miterlimit:4;stroke-dasharray:none;stroke-opacity:1"
     sodipodi:nodetypes="cssssssssssc" />
</svg>
