<?xml version="1.0" encoding="UTF-8" standalone="no"?>
<!-- Created with Inkscape (http://www.inkscape.org/) -->

<svg
   xmlns:dc="http://purl.org/dc/elements/1.1/"
   xmlns:cc="http://creativecommons.org/ns#"
   xmlns:rdf="http://www.w3.org/1999/02/22-rdf-syntax-ns#"
   xmlns:svg="http://www.w3.org/2000/svg"
   xmlns="http://www.w3.org/2000/svg"
   xmlns:sodipodi="http://sodipodi.sourceforge.net/DTD/sodipodi-0.dtd"
   xmlns:inkscape="http://www.inkscape.org/namespaces/inkscape"
   version="1.1"
   id="svg3836"
   width="64"
   height="64"
   viewBox="0 0 64 64"
   sodipodi:docname="marsh.svg"
   inkscape:version="0.92.2 (5c3e80d, 2017-08-06)">
  <metadata
     id="metadata3842">
    <rdf:RDF>
      <cc:Work
         rdf:about="">
        <dc:format>image/svg+xml</dc:format>
        <dc:type
           rdf:resource="http://purl.org/dc/dcmitype/StillImage" />
        <dc:title />
      </cc:Work>
    </rdf:RDF>
  </metadata>
  <defs
     id="defs3840" />
  <sodipodi:namedview
     pagecolor="#ffffff"
     bordercolor="#666666"
     borderopacity="1"
     objecttolerance="10"
     gridtolerance="10"
     guidetolerance="10"
     inkscape:pageopacity="0"
     inkscape:pageshadow="2"
     inkscape:window-width="1864"
     inkscape:window-height="1051"
     id="namedview3838"
     showgrid="true"
     inkscape:zoom="12.007217"
     inkscape:cx="26.780304"
     inkscape:cy="30.975581"
     inkscape:window-x="56"
     inkscape:window-y="0"
     inkscape:window-maximized="1"
     inkscape:current-layer="svg3836"
     showguides="false">
    <inkscape:grid
       type="xygrid"
       id="grid6477" />
  </sodipodi:namedview>
  <path
     style="fill:#000000;fill-opacity:1;stroke:none;stroke-width:0.5px;stroke-linecap:butt;stroke-linejoin:miter;stroke-opacity:1"
     d="M 8,57 H 2 v 0.5 h 6 z"
     id="path6789-5"
     inkscape:connector-curvature="0"
     sodipodi:nodetypes="ccccc" />
  <path
     style="fill:#000000;fill-opacity:1;stroke:none;stroke-width:0.5px;stroke-linecap:butt;stroke-linejoin:miter;stroke-opacity:1"
     d="m 19.078237,60.309739 h -6 v 0.5 h 6 z"
     id="path6789-5-9"
     inkscape:connector-curvature="0"
     sodipodi:nodetypes="ccccc" />
  <path
     style="fill:#000000;fill-opacity:1;stroke:none;stroke-width:0.43301269px;stroke-linecap:butt;stroke-linejoin:miter;stroke-opacity:1"
     d="m 27.578237,50.309739 h -4.5 v 0.5 h 4.5 z"
     id="path6789-5-7"
     inkscape:connector-curvature="0"
     sodipodi:nodetypes="ccccc" />
  <path
     style="fill:#000000;fill-opacity:1;stroke:none;stroke-width:0.5px;stroke-linecap:butt;stroke-linejoin:miter;stroke-opacity:1"
     d="m 34.078237,56.309739 h -6 v 0.5 h 6 z"
     id="path6789-5-76"
     inkscape:connector-curvature="0"
     sodipodi:nodetypes="ccccc" />
  <path
     style="fill:#000000;fill-opacity:1;stroke:none;stroke-width:0.5px;stroke-linecap:butt;stroke-linejoin:miter;stroke-opacity:1"
     d="m 43,60 h -6 v 0.5 h 6 z"
     id="path6789-5-73"
     inkscape:connector-curvature="0"
     sodipodi:nodetypes="ccccc" />
  <path
     style="fill:#000000;fill-opacity:1;stroke:none;stroke-width:0.5px;stroke-linecap:butt;stroke-linejoin:miter;stroke-opacity:1"
     d="m 56,51 h -6 v 0.5 h 6 z"
     id="path6789-5-6"
     inkscape:connector-curvature="0"
     sodipodi:nodetypes="ccccc" />
  <path
     style="fill:#000000;fill-opacity:1;stroke:none;stroke-width:0.5px;stroke-linecap:butt;stroke-linejoin:miter;stroke-opacity:1"
     d="m 58.578237,41.309739 h -6 v 0.5 h 6 z"
     id="path6789-5-5"
     inkscape:connector-curvature="0"
     sodipodi:nodetypes="ccccc" />
  <path
     style="fill:#000000;fill-opacity:1;stroke:none;stroke-width:0.47871354px;stroke-linecap:butt;stroke-linejoin:miter;stroke-opacity:1"
     d="m 42.578237,32.809739 h -5.5 v 0.5 h 5.5 z"
     id="path6789-5-63"
     inkscape:connector-curvature="0"
     sodipodi:nodetypes="ccccc" />
  <path
     style="fill:#000000;fill-opacity:1;stroke:none;stroke-width:0.5px;stroke-linecap:butt;stroke-linejoin:miter;stroke-opacity:1"
     d="m 29.078237,36.309739 h -6 v 0.5 h 6 z"
     id="path6789-5-94"
     inkscape:connector-curvature="0"
     sodipodi:nodetypes="ccccc" />
  <path
     style="fill:#000000;fill-opacity:1;stroke:none;stroke-width:0.5px;stroke-linecap:butt;stroke-linejoin:miter;stroke-opacity:1"
     d="m 16.578237,30.809739 h -6 v 0.5 h 6 z"
     id="path6789-5-8"
     inkscape:connector-curvature="0"
     sodipodi:nodetypes="ccccc" />
  <path
     style="fill:#000000;fill-opacity:1;stroke:none;stroke-width:0.5px;stroke-linecap:butt;stroke-linejoin:miter;stroke-opacity:1"
     d="m 18.578237,20.309739 h -6 v 0.5 h 6 z"
     id="path6789-5-1"
     inkscape:connector-curvature="0"
     sodipodi:nodetypes="ccccc" />
  <path
     style="fill:#000000;fill-opacity:1;stroke:none;stroke-width:0.43301269px;stroke-linecap:butt;stroke-linejoin:miter;stroke-opacity:1"
     d="m 29.578237,23.809739 h -4.5 v 0.5 h 4.5 z"
     id="path6789-5-2"
     inkscape:connector-curvature="0"
     sodipodi:nodetypes="ccccc" />
  <path
     style="fill:#000000;fill-opacity:1;stroke:none;stroke-width:0.5px;stroke-linecap:butt;stroke-linejoin:miter;stroke-opacity:1"
     d="m 43.078237,42.809739 h -6 v 0.5 h 6 z"
     id="path6789-5-93"
     inkscape:connector-curvature="0"
     sodipodi:nodetypes="ccccc" />
  <path
     style="fill:#000000;fill-opacity:1;stroke:none;stroke-width:0.35355338px;stroke-linecap:butt;stroke-linejoin:miter;stroke-opacity:1"
     d="m 12.578237,45.309739 h -3 v 0.5 h 3 z"
     id="path6789-5-90"
     inkscape:connector-curvature="0"
     sodipodi:nodetypes="ccccc" />
  <path
     style="fill:#000000;fill-opacity:1;stroke:none;stroke-width:0.5px;stroke-linecap:butt;stroke-linejoin:miter;stroke-opacity:1"
     d="m 12.578237,37.309739 h -6 v 0.5 h 6 z"
     id="path6789-5-88"
     inkscape:connector-curvature="0"
     sodipodi:nodetypes="ccccc" />
  <path
     style="fill:#000000;fill-opacity:1;stroke:none;stroke-width:0.5px;stroke-linecap:butt;stroke-linejoin:miter;stroke-opacity:1"
     d="M 64,33.5 H 58 V 34 h 6 z"
     id="path6789-5-50"
     inkscape:connector-curvature="0"
     sodipodi:nodetypes="ccccc" />
  <path
     style="fill:#000000;fill-opacity:1;stroke:none;stroke-width:0.5px;stroke-linecap:butt;stroke-linejoin:miter;stroke-opacity:1"
     d="m 50.078237,25.309739 h -6 v 0.5 h 6 z"
     id="path6789-5-96"
     inkscape:connector-curvature="0"
     sodipodi:nodetypes="ccccc" />
  <path
     style="fill:#000000;fill-opacity:1;stroke:none;stroke-width:0.5px;stroke-linecap:butt;stroke-linejoin:miter;stroke-opacity:1"
     d="m 39.078237,16.309739 h -6 v 0.5 h 6 z"
     id="path6789-5-3"
     inkscape:connector-curvature="0"
     sodipodi:nodetypes="ccccc" />
  <path
     style="fill:#000000;fill-opacity:1;stroke:none;stroke-width:0.3818813px;stroke-linecap:butt;stroke-linejoin:miter;stroke-opacity:1"
     d="m 27.578237,43.309739 h -3.5 v 0.5 h 3.5 z"
     id="path6789-5-85"
     inkscape:connector-curvature="0"
     sodipodi:nodetypes="ccccc" />
  <path
     style="fill:#000000;fill-opacity:1;stroke:none;stroke-width:0.5px;stroke-linecap:butt;stroke-linejoin:miter;stroke-opacity:1"
     d="M 58,62.5 H 52 V 63 h 6 z"
     id="path6789-5-61"
     inkscape:connector-curvature="0"
     sodipodi:nodetypes="ccccc" />
  <path
     style="fill:#000000;fill-opacity:1;stroke:none;stroke-width:0.5px;stroke-linecap:butt;stroke-linejoin:miter;stroke-opacity:1"
     d="m 61,17 h -6 v 0.5 h 6 z"
     id="path6789-5-15"
     inkscape:connector-curvature="0"
     sodipodi:nodetypes="ccccc" />
  <path
     style="fill:#000000;fill-opacity:1;stroke:none;stroke-width:0.5px;stroke-linecap:butt;stroke-linejoin:miter;stroke-opacity:1"
     d="m 50.578237,14.809739 h -6 v 0.5 h 6 z"
     id="path6789-5-98"
     inkscape:connector-curvature="0"
     sodipodi:nodetypes="ccccc" />
  <path
     style="fill:#000000;fill-opacity:1;stroke:none;stroke-width:0.5px;stroke-linecap:butt;stroke-linejoin:miter;stroke-opacity:1"
     d="m 63,3 h -6 v 0.5 h 6 z"
     id="path6789-5-4"
     inkscape:connector-curvature="0"
     sodipodi:nodetypes="ccccc" />
  <path
     style="fill:#000000;fill-opacity:1;stroke:none;stroke-width:0.5px;stroke-linecap:butt;stroke-linejoin:miter;stroke-opacity:1"
     d="m 50.578237,7.309739 h -6 v 0.5 h 6 z"
     id="path6789-5-81"
     inkscape:connector-curvature="0"
     sodipodi:nodetypes="ccccc" />
  <path
     style="fill:#000000;fill-opacity:1;stroke:none;stroke-width:0.32274863px;stroke-linecap:butt;stroke-linejoin:miter;stroke-opacity:1"
     d="m 55.078237,11.309739 h -2.5 v 0.5 h 2.5 z"
     id="path6789-5-0"
     inkscape:connector-curvature="0"
     sodipodi:nodetypes="ccccc" />
  <path
     style="fill:#000000;fill-opacity:1;stroke:none;stroke-width:0.5px;stroke-linecap:butt;stroke-linejoin:miter;stroke-opacity:1"
     d="m 34,1 h -6 v 0.5 h 6 z"
     id="path6789-5-30"
     inkscape:connector-curvature="0"
     sodipodi:nodetypes="ccccc" />
  <path
     style="fill:#000000;fill-opacity:1;stroke:none;stroke-width:0.5px;stroke-linecap:butt;stroke-linejoin:miter;stroke-opacity:1"
     d="m 33.078237,10.309739 h -6 v 0.5 h 6 z"
     id="path6789-5-44"
     inkscape:connector-curvature="0"
     sodipodi:nodetypes="ccccc" />
  <path
     style="fill:#000000;fill-opacity:1;stroke:none;stroke-width:0.5px;stroke-linecap:butt;stroke-linejoin:miter;stroke-opacity:1"
     d="m 27.078237,14.309739 h -6 v 0.5 h 6 z"
     id="path6789-5-447"
     inkscape:connector-curvature="0"
     sodipodi:nodetypes="ccccc" />
  <path
     style="fill:#000000;fill-opacity:1;stroke:none;stroke-width:0.5px;stroke-linecap:butt;stroke-linejoin:miter;stroke-opacity:1"
     d="M 6.9131731,14.476305 H 0.91317315 v 0.5 H 6.9131731 Z"
     id="path6789-5-631"
     inkscape:connector-curvature="0"
     sodipodi:nodetypes="ccccc" />
  <path
     style="fill:#000000;fill-opacity:1;stroke:none;stroke-width:0.5px;stroke-linecap:butt;stroke-linejoin:miter;stroke-opacity:1"
     d="m 10.578237,4.809739 h -6 v 0.5 h 6 z"
     id="path6789-5-75"
     inkscape:connector-curvature="0"
     sodipodi:nodetypes="ccccc" />
  <path
     style="fill:#000000;fill-opacity:1;stroke:none;stroke-width:0.40824831px;stroke-linecap:butt;stroke-linejoin:miter;stroke-opacity:1"
     d="m 15.078237,9.309739 h -4 v 0.5 h 4 z"
     id="path6789-5-962"
     inkscape:connector-curvature="0"
     sodipodi:nodetypes="ccccc" />
  <path
     style="fill:#000000;fill-opacity:1;stroke:none;stroke-width:0.5px;stroke-linecap:butt;stroke-linejoin:miter;stroke-opacity:1"
     d="m 10.578237,24.309739 h -6 v 0.5 h 6 z"
     id="path6789-5-17"
     inkscape:connector-curvature="0"
     sodipodi:nodetypes="ccccc" />
  <path
     style="fill:#000000;fill-opacity:1;stroke:none;stroke-width:0.5px;stroke-linecap:butt;stroke-linejoin:miter;stroke-opacity:1"
     d="m 19.078237,9.809739 -1.220838,-3.5 0.720838,-0.250283 1,3.250283 v -4 h 0.5 v 3.5 l 1,-2.309739 0.67667,0.309739 -1.17667,2.5 1.5,-1.5 0.5,0.5 -1.5,1.5 z"
     id="path1642"
     inkscape:connector-curvature="0"
     sodipodi:nodetypes="cccccccccccccc" />
  <path
     style="fill:#000000;fill-opacity:1;stroke:none;stroke-width:0.5px;stroke-linecap:butt;stroke-linejoin:miter;stroke-opacity:1"
     d="m 38,12.309739 -1.220838,-3.5 L 37.5,8.559456 l 1,3.250283 v -4 H 39 v 3.5 L 40,9 l 0.676671,0.309739 -1.176671,2.5 1.5,-1.5 0.5,0.5 -1.5,1.5 z"
     id="path1642-6"
     inkscape:connector-curvature="0"
     sodipodi:nodetypes="cccccccccccccc" />
  <path
     style="fill:#000000;fill-opacity:1;stroke:none;stroke-width:0.5px;stroke-linecap:butt;stroke-linejoin:miter;stroke-opacity:1"
     d="m 36.578237,24.809739 -1.220838,-3.5 0.720838,-0.250283 1,3.250283 v -4 h 0.5 v 3.5 l 1,-2.309739 0.67667,0.309739 -1.17667,2.5 1.5,-1.5 0.5,0.5 -1.5,1.5 z"
     id="path1642-4"
     inkscape:connector-curvature="0"
     sodipodi:nodetypes="cccccccccccccc" />
  <path
     style="fill:#000000;fill-opacity:1;stroke:none;stroke-width:0.5px;stroke-linecap:butt;stroke-linejoin:miter;stroke-opacity:1"
     d="m 22.84245,33.661956 -1.220838,-3.5 0.720838,-0.250283 1,3.250283 v -4 h 0.5 v 3.5 l 1,-2.30974 0.67667,0.30974 -1.17667,2.5 1.5,-1.5 0.5,0.5 -1.5,1.5 z"
     id="path1642-3"
     inkscape:connector-curvature="0"
     sodipodi:nodetypes="cccccccccccccc" />
  <path
     style="fill:#000000;fill-opacity:1;stroke:none;stroke-width:0.5px;stroke-linecap:butt;stroke-linejoin:miter;stroke-opacity:1"
     d="m 46.578237,40.657748 -1.220838,-3.5 0.720838,-0.250283 1,3.250283 v -4 h 0.5 v 3.5 l 1,-2.309739 0.67667,0.309739 -1.17667,2.5 1.5,-1.5 0.5,0.5 -1.5,1.5 z"
     id="path1642-33"
     inkscape:connector-curvature="0"
     sodipodi:nodetypes="cccccccccccccc" />
  <path
     style="fill:#000000;fill-opacity:1;stroke:none;stroke-width:0.5px;stroke-linecap:butt;stroke-linejoin:miter;stroke-opacity:1"
     d="M 59,27 57.77916,23.5 58.5,23.249717 59.5,26.5 v -4 H 60 V 26 L 61,23.690261 61.67667,24 60.5,26.5 62,25 62.5,25.5 61,27 Z"
     id="path1642-8"
     inkscape:connector-curvature="0"
     sodipodi:nodetypes="cccccccccccccc" />
  <path
     style="fill:#000000;fill-opacity:1;stroke:none;stroke-width:0.5px;stroke-linecap:butt;stroke-linejoin:miter;stroke-opacity:1"
     d="M 2,53 0.779162,49.5 1.5,49.249717 2.5,52.5 v -4 H 3 V 52 L 4,49.69026 4.67667,50 3.5,52.5 5,51 5.5,51.5 4,53 Z"
     id="path1642-60"
     inkscape:connector-curvature="0"
     sodipodi:nodetypes="cccccccccccccc" />
  <path
     style="fill:#000000;fill-opacity:1;stroke:none;stroke-width:0.5px;stroke-linecap:butt;stroke-linejoin:miter;stroke-opacity:1"
     d="m 35.251653,49.809739 -1.220838,-3.5 0.720838,-0.250283 1,3.250283 v -4 h 0.5 v 3.5 l 1,-2.30974 0.676671,0.30974 -1.176671,2.5 1.5,-1.5 0.5,0.5 -1.5,1.5 z"
     id="path1642-48"
     inkscape:connector-curvature="0"
     sodipodi:nodetypes="cccccccccccccc" />
  <path
     style="fill:#000000;fill-opacity:1;stroke:none;stroke-width:0.5px;stroke-linecap:butt;stroke-linejoin:miter;stroke-opacity:1"
     d="m 29.078237,34.809739 -1.220838,-3.5 0.720838,-0.250283 1,3.250283 v -4 h 0.5 v 3.5 l 1,-2.309739 0.67667,0.309739 -1.17667,2.5 1.5,-1.5 0.5,0.5 -1.5,1.5 z"
     id="path1642-88"
     inkscape:connector-curvature="0"
     sodipodi:nodetypes="cccccccccccccc" />
  <path
     style="fill:#000000;fill-opacity:1;stroke:none;stroke-width:0.5px;stroke-linecap:butt;stroke-linejoin:miter;stroke-opacity:1"
     d="m 19.078237,57.309739 -1.220838,-3.5 0.720838,-0.250285 1,3.250285 v -4 h 0.5 v 3.5 l 1,-2.30974 0.67667,0.30974 -1.17667,2.5 1.5,-1.5 0.5,0.5 -1.5,1.5 z"
     id="path1642-9"
     inkscape:connector-curvature="0"
     sodipodi:nodetypes="cccccccccccccc" />
  <path
     style="fill:#000000;fill-opacity:1;stroke:none;stroke-width:0.5px;stroke-linecap:butt;stroke-linejoin:miter;stroke-opacity:1"
     d="m 5.269685,22.309739 -1.220838,-3.5 0.720838,-0.250283 1,3.250283 v -4 h 0.5 v 3.5 l 1,-2.309739 0.676671,0.309739 -1.176671,2.5 1.5,-1.5 0.5,0.5 -1.5,1.5 z"
     id="path1642-7"
     inkscape:connector-curvature="0"
     sodipodi:nodetypes="cccccccccccccc" />
  <path
     style="fill:#000000;fill-opacity:1;stroke:none;stroke-width:0.5px;stroke-linecap:butt;stroke-linejoin:miter;stroke-opacity:1"
     d="m 49.078237,57.309739 -1.220838,-3.5 0.720838,-0.250285 1,3.250285 v -4 h 0.5 v 3.5 l 1,-2.30974 0.67667,0.30974 -1.17667,2.5 1.5,-1.5 0.5,0.5 -1.5,1.5 z"
     id="path1642-76"
     inkscape:connector-curvature="0"
     sodipodi:nodetypes="cccccccccccccc" />
</svg>
