<svg xmlns="http://www.w3.org/2000/svg" viewBox="0 0 18 18" height="18" width="18"><title>quarry.svg</title><rect fill="none" x="0" y="0" width="18" height="18"></rect><path fill="#000" transform="translate(1 1)" d="M 0,10 H 3 V 9 H 0 Z"></path><path fill="#000" transform="translate(1 1)" d="M 15,10 H 12 V 9 h 3 z"></path><path fill="#000" transform="translate(1 1)" d="M 2.7709711,4 4.3307288,6.5413411 5.4550526,5.7555598 4,3.5413411 Z"></path><path fill="#000" transform="translate(1 1)" d="M 12.229029,4.2772822 10.78518,6.4788787 9.6192148,5.7139182 11,3.4788787 Z"></path><path fill="#000" transform="translate(1 1)" d="M 1,10 H 0 C 0,10 -0.06075522,7.623959 0.22902892,6.666867 0.57730613,5.5165856 1.3375507,4.4958828 2.1873873,3.6460462 3.0372239,2.7962096 3.707184,2.4300276 4.8126127,1.9583584 5.5963574,1.6239467 6.6433848,1.4459765 7.4954921,1.4456518 c 0.8550413,-3.259e-4 1.9886073,0.198264 2.7751789,0.5335274 1.105608,0.4712479 1.712926,0.9003137 2.562763,1.7501503 0.849836,0.8498365 1.651722,1.6623312 2,2.8126127 C 15.123218,7.4990342 15,10 15,10 h -1 c 0,0 0.0045,-1.7460694 -0.145746,-2.3955954 C 13.603495,6.5200277 13.17028,5.8247826 12.471666,4.9583584 11.796212,4.1206587 10.700255,3.463985 9.7293295,3 8.9761438,2.6400683 8.2886095,2.6157131 7.4538504,2.6116173 6.5813741,2.6073364 5.9559411,2.7532785 5.1665665,3.1249249 4.1908442,3.5843057 3.2584211,4.139404 2.5817806,4.9791792 1.884296,5.8448239 1.4157136,6.5626483 1.1665665,7.6460462 1.0171543,8.2957542 1,10 1,10 Z"></path></svg>