<?xml version="1.0" encoding="UTF-8" standalone="no"?>
<!-- Created with Inkscape (http://www.inkscape.org/) -->

<svg
   xmlns:dc="http://purl.org/dc/elements/1.1/"
   xmlns:cc="http://creativecommons.org/ns#"
   xmlns:rdf="http://www.w3.org/1999/02/22-rdf-syntax-ns#"
   xmlns:svg="http://www.w3.org/2000/svg"
   xmlns="http://www.w3.org/2000/svg"
   xmlns:sodipodi="http://sodipodi.sourceforge.net/DTD/sodipodi-0.dtd"
   xmlns:inkscape="http://www.inkscape.org/namespaces/inkscape"
   version="1.1"
   id="svg3836"
   width="64"
   height="64"
   viewBox="0 0 64 64"
   sodipodi:docname="swamp.svg"
   inkscape:version="0.92.2 (5c3e80d, 2017-08-06)">
  <metadata
     id="metadata3842">
    <rdf:RDF>
      <cc:Work
         rdf:about="">
        <dc:format>image/svg+xml</dc:format>
        <dc:type
           rdf:resource="http://purl.org/dc/dcmitype/StillImage" />
        <dc:title></dc:title>
      </cc:Work>
    </rdf:RDF>
  </metadata>
  <defs
     id="defs3840" />
  <sodipodi:namedview
     pagecolor="#ffffff"
     bordercolor="#666666"
     borderopacity="1"
     objecttolerance="10"
     gridtolerance="10"
     guidetolerance="10"
     inkscape:pageopacity="0"
     inkscape:pageshadow="2"
     inkscape:window-width="1864"
     inkscape:window-height="1051"
     id="namedview3838"
     showgrid="true"
     inkscape:zoom="8.4903846"
     inkscape:cx="-8.8979142"
     inkscape:cy="39.857178"
     inkscape:window-x="56"
     inkscape:window-y="0"
     inkscape:window-maximized="1"
     inkscape:current-layer="svg3836"
     showguides="false">
    <inkscape:grid
       type="xygrid"
       id="grid6477" />
  </sodipodi:namedview>
  <path
     style="fill:#000000;fill-opacity:1;stroke:none;stroke-width:0.5px;stroke-linecap:butt;stroke-linejoin:miter;stroke-opacity:1"
     d="M 10,55.5 H 4 V 56 h 6 z"
     id="path6789-5"
     inkscape:connector-curvature="0"
     sodipodi:nodetypes="ccccc" />
  <path
     style="fill:#000000;fill-opacity:1;stroke:none;stroke-width:0.5px;stroke-linecap:butt;stroke-linejoin:miter;stroke-opacity:1"
     d="m 20,60 h -6 v 0.5 h 6 z"
     id="path6789-5-9"
     inkscape:connector-curvature="0"
     sodipodi:nodetypes="ccccc" />
  <path
     style="fill:#000000;fill-opacity:1;stroke:none;stroke-width:0.43301269px;stroke-linecap:butt;stroke-linejoin:miter;stroke-opacity:1"
     d="M 28.5,50 H 24 v 0.5 h 4.5 z"
     id="path6789-5-7"
     inkscape:connector-curvature="0"
     sodipodi:nodetypes="ccccc" />
  <path
     style="fill:#000000;fill-opacity:1;stroke:none;stroke-width:0.5px;stroke-linecap:butt;stroke-linejoin:miter;stroke-opacity:1"
     d="m 35,56 h -6 v 0.5 h 6 z"
     id="path6789-5-76"
     inkscape:connector-curvature="0"
     sodipodi:nodetypes="ccccc" />
  <path
     style="fill:#000000;fill-opacity:1;stroke:none;stroke-width:0.5px;stroke-linecap:butt;stroke-linejoin:miter;stroke-opacity:1"
     d="m 44,56 h -6 v 0.5 h 6 z"
     id="path6789-5-73"
     inkscape:connector-curvature="0"
     sodipodi:nodetypes="ccccc" />
  <path
     style="fill:#000000;fill-opacity:1;stroke:none;stroke-width:0.5px;stroke-linecap:butt;stroke-linejoin:miter;stroke-opacity:1"
     d="m 54.5,51 h -6 v 0.5 h 6 z"
     id="path6789-5-6"
     inkscape:connector-curvature="0"
     sodipodi:nodetypes="ccccc" />
  <path
     style="fill:#000000;fill-opacity:1;stroke:none;stroke-width:0.5px;stroke-linecap:butt;stroke-linejoin:miter;stroke-opacity:1"
     d="m 59.5,41 h -6 v 0.5 h 6 z"
     id="path6789-5-5"
     inkscape:connector-curvature="0"
     sodipodi:nodetypes="ccccc" />
  <path
     style="fill:#000000;fill-opacity:1;stroke:none;stroke-width:0.47871354px;stroke-linecap:butt;stroke-linejoin:miter;stroke-opacity:1"
     d="M 43.5,32.5 H 38 V 33 h 5.5 z"
     id="path6789-5-63"
     inkscape:connector-curvature="0"
     sodipodi:nodetypes="ccccc" />
  <path
     style="fill:#000000;fill-opacity:1;stroke:none;stroke-width:0.5px;stroke-linecap:butt;stroke-linejoin:miter;stroke-opacity:1"
     d="m 30,36 h -6 v 0.5 h 6 z"
     id="path6789-5-94"
     inkscape:connector-curvature="0"
     sodipodi:nodetypes="ccccc" />
  <path
     style="fill:#000000;fill-opacity:1;stroke:none;stroke-width:0.5px;stroke-linecap:butt;stroke-linejoin:miter;stroke-opacity:1"
     d="m 17.5,30.5 h -6 V 31 h 6 z"
     id="path6789-5-8"
     inkscape:connector-curvature="0"
     sodipodi:nodetypes="ccccc" />
  <path
     style="fill:#000000;fill-opacity:1;stroke:none;stroke-width:0.5px;stroke-linecap:butt;stroke-linejoin:miter;stroke-opacity:1"
     d="m 19.5,20 h -6 v 0.5 h 6 z"
     id="path6789-5-1"
     inkscape:connector-curvature="0"
     sodipodi:nodetypes="ccccc" />
  <path
     style="fill:#000000;fill-opacity:1;stroke:none;stroke-width:0.43301269px;stroke-linecap:butt;stroke-linejoin:miter;stroke-opacity:1"
     d="M 30.5,23.5 H 26 V 24 h 4.5 z"
     id="path6789-5-2"
     inkscape:connector-curvature="0"
     sodipodi:nodetypes="ccccc" />
  <path
     style="fill:#000000;fill-opacity:1;stroke:none;stroke-width:0.5px;stroke-linecap:butt;stroke-linejoin:miter;stroke-opacity:1"
     d="M 44,42.5 H 38 V 43 h 6 z"
     id="path6789-5-93"
     inkscape:connector-curvature="0"
     sodipodi:nodetypes="ccccc" />
  <path
     style="fill:#000000;fill-opacity:1;stroke:none;stroke-width:0.35355338px;stroke-linecap:butt;stroke-linejoin:miter;stroke-opacity:1"
     d="m 13.5,45 h -3 v 0.5 h 3 z"
     id="path6789-5-90"
     inkscape:connector-curvature="0"
     sodipodi:nodetypes="ccccc" />
  <path
     style="fill:#000000;fill-opacity:1;stroke:none;stroke-width:0.5px;stroke-linecap:butt;stroke-linejoin:miter;stroke-opacity:1"
     d="m 13.5,37 h -6 v 0.5 h 6 z"
     id="path6789-5-88"
     inkscape:connector-curvature="0"
     sodipodi:nodetypes="ccccc" />
  <path
     style="fill:#000000;fill-opacity:1;stroke:none;stroke-width:0.5px;stroke-linecap:butt;stroke-linejoin:miter;stroke-opacity:1"
     d="m 62.5,33 h -6 v 0.5 h 6 z"
     id="path6789-5-50"
     inkscape:connector-curvature="0"
     sodipodi:nodetypes="ccccc" />
  <path
     style="fill:#000000;fill-opacity:1;stroke:none;stroke-width:0.5px;stroke-linecap:butt;stroke-linejoin:miter;stroke-opacity:1"
     d="m 51,25 h -6 v 0.5 h 6 z"
     id="path6789-5-96"
     inkscape:connector-curvature="0"
     sodipodi:nodetypes="ccccc" />
  <path
     style="fill:#000000;fill-opacity:1;stroke:none;stroke-width:0.5px;stroke-linecap:butt;stroke-linejoin:miter;stroke-opacity:1"
     d="m 40,16 h -6 v 0.5 h 6 z"
     id="path6789-5-3"
     inkscape:connector-curvature="0"
     sodipodi:nodetypes="ccccc" />
  <path
     style="fill:#000000;fill-opacity:1;stroke:none;stroke-width:0.3818813px;stroke-linecap:butt;stroke-linejoin:miter;stroke-opacity:1"
     d="M 28.5,43 H 25 v 0.5 h 3.5 z"
     id="path6789-5-85"
     inkscape:connector-curvature="0"
     sodipodi:nodetypes="ccccc" />
  <path
     style="fill:#000000;fill-opacity:1;stroke:none;stroke-width:0.5px;stroke-linecap:butt;stroke-linejoin:miter;stroke-opacity:1"
     d="m 61,60 h -6 v 0.5 h 6 z"
     id="path6789-5-61"
     inkscape:connector-curvature="0"
     sodipodi:nodetypes="ccccc" />
  <path
     style="fill:#000000;fill-opacity:1;stroke:none;stroke-width:0.5px;stroke-linecap:butt;stroke-linejoin:miter;stroke-opacity:1"
     d="m 60.5,19.5 h -6 V 20 h 6 z"
     id="path6789-5-15"
     inkscape:connector-curvature="0"
     sodipodi:nodetypes="ccccc" />
  <path
     style="fill:#000000;fill-opacity:1;stroke:none;stroke-width:0.5px;stroke-linecap:butt;stroke-linejoin:miter;stroke-opacity:1"
     d="m 51.5,14.5 h -6 V 15 h 6 z"
     id="path6789-5-98"
     inkscape:connector-curvature="0"
     sodipodi:nodetypes="ccccc" />
  <path
     style="fill:#000000;fill-opacity:1;stroke:none;stroke-width:0.5px;stroke-linecap:butt;stroke-linejoin:miter;stroke-opacity:1"
     d="m 62,4 h -6 v 0.5 h 6 z"
     id="path6789-5-4"
     inkscape:connector-curvature="0"
     sodipodi:nodetypes="ccccc" />
  <path
     style="fill:#000000;fill-opacity:1;stroke:none;stroke-width:0.5px;stroke-linecap:butt;stroke-linejoin:miter;stroke-opacity:1"
     d="m 51.5,7 h -6 v 0.5 h 6 z"
     id="path6789-5-81"
     inkscape:connector-curvature="0"
     sodipodi:nodetypes="ccccc" />
  <path
     style="fill:#000000;fill-opacity:1;stroke:none;stroke-width:0.32274863px;stroke-linecap:butt;stroke-linejoin:miter;stroke-opacity:1"
     d="m 56,11 h -2.5 v 0.5 H 56 Z"
     id="path6789-5-0"
     inkscape:connector-curvature="0"
     sodipodi:nodetypes="ccccc" />
  <path
     style="fill:#000000;fill-opacity:1;stroke:none;stroke-width:0.5px;stroke-linecap:butt;stroke-linejoin:miter;stroke-opacity:1"
     d="m 37.5,4 h -6 v 0.5 h 6 z"
     id="path6789-5-30"
     inkscape:connector-curvature="0"
     sodipodi:nodetypes="ccccc" />
  <path
     style="fill:#000000;fill-opacity:1;stroke:none;stroke-width:0.5px;stroke-linecap:butt;stroke-linejoin:miter;stroke-opacity:1"
     d="m 34,10 h -6 v 0.5 h 6 z"
     id="path6789-5-44"
     inkscape:connector-curvature="0"
     sodipodi:nodetypes="ccccc" />
  <path
     style="fill:#000000;fill-opacity:1;stroke:none;stroke-width:0.5px;stroke-linecap:butt;stroke-linejoin:miter;stroke-opacity:1"
     d="m 28,14 h -6 v 0.5 h 6 z"
     id="path6789-5-447"
     inkscape:connector-curvature="0"
     sodipodi:nodetypes="ccccc" />
  <path
     style="fill:#000000;fill-opacity:1;stroke:none;stroke-width:0.5px;stroke-linecap:butt;stroke-linejoin:miter;stroke-opacity:1"
     d="m 10.5,14 h -6 v 0.5 h 6 z"
     id="path6789-5-631"
     inkscape:connector-curvature="0"
     sodipodi:nodetypes="ccccc" />
  <path
     style="fill:#000000;fill-opacity:1;stroke:none;stroke-width:0.5px;stroke-linecap:butt;stroke-linejoin:miter;stroke-opacity:1"
     d="m 11.5,4.5 h -6 V 5 h 6 z"
     id="path6789-5-75"
     inkscape:connector-curvature="0"
     sodipodi:nodetypes="ccccc" />
  <path
     style="fill:#000000;fill-opacity:1;stroke:none;stroke-width:0.40824831px;stroke-linecap:butt;stroke-linejoin:miter;stroke-opacity:1"
     d="m 16,9 h -4 v 0.5 h 4 z"
     id="path6789-5-962"
     inkscape:connector-curvature="0"
     sodipodi:nodetypes="ccccc" />
  <path
     style="fill:#000000;fill-opacity:1;stroke:none;stroke-width:0.5px;stroke-linecap:butt;stroke-linejoin:miter;stroke-opacity:1"
     d="m 11.5,24 h -6 v 0.5 h 6 z"
     id="path6789-5-17"
     inkscape:connector-curvature="0"
     sodipodi:nodetypes="ccccc" />
  <path
     style="fill:#000000;fill-opacity:1;stroke:none;stroke-width:0.5px;stroke-linecap:butt;stroke-linejoin:miter;stroke-opacity:1"
     d="m 18.5,9.5 v -4 H 19 v 4 z"
     id="path1800"
     inkscape:connector-curvature="0" />
  <path
     style="fill:#000000;fill-opacity:1;stroke:none;stroke-width:0.5px;stroke-linecap:butt;stroke-linejoin:miter;stroke-opacity:1"
     d="M 18,8 C 17.46138,7.882866 16,7.5 16,5.5 16,4 17.5,3 18.765318,3 20,3 21.5,4 21.5,5.5 21.5,7 21,8 19.5,8 19.252561,7.844002 19.193255,7.609224 19.5,7.5 20.5,7.302325 21,6.88182 21,5.5 21,4.250151 19.5,3.5 18.726419,3.5 18,3.5 16.5,4.26026 16.5,5.5 c 0,1.253808 0.843885,1.793475 1.5,2 0.183499,0.146042 0.192583,0.325754 0,0.5 z"
     id="path1823"
     inkscape:connector-curvature="0"
     sodipodi:nodetypes="ccccccccccc" />
  <path
     style="fill:#000000;fill-opacity:1;stroke:none;stroke-width:0.5px;stroke-linecap:butt;stroke-linejoin:miter;stroke-opacity:1"
     d="m 38.5,24.5 v -4 H 39 v 4 z"
     id="path1800-3"
     inkscape:connector-curvature="0" />
  <path
     style="fill:#000000;fill-opacity:1;stroke:none;stroke-width:0.5px;stroke-linecap:butt;stroke-linejoin:miter;stroke-opacity:1"
     d="M 38,23 C 37.46138,22.882866 36,22.5 36,20.5 36,19 37.5,18 38.765318,18 40,18 41.5,19 41.5,20.5 c 0,1.5 -0.5,2.5 -2,2.5 -0.247439,-0.155997 -0.306746,-0.390776 0,-0.5 1,-0.197674 1.5,-0.618181 1.5,-2 0,-1.24985 -1.5,-2 -2.273581,-2 C 38,18.5 36.5,19.26026 36.5,20.5 c 0,1.253808 0.843885,1.793475 1.5,2 0.183499,0.146041 0.192583,0.325755 0,0.5 z"
     id="path1823-0"
     inkscape:connector-curvature="0"
     sodipodi:nodetypes="ccccccccccc" />
  <path
     style="fill:#000000;fill-opacity:1;stroke:none;stroke-width:0.5px;stroke-linecap:butt;stroke-linejoin:miter;stroke-opacity:1"
     d="M 23.5,32 V 28 H 24 v 4 z"
     id="path1800-0"
     inkscape:connector-curvature="0" />
  <path
     style="fill:#000000;fill-opacity:1;stroke:none;stroke-width:0.5px;stroke-linecap:butt;stroke-linejoin:miter;stroke-opacity:1"
     d="M 23,30.5 C 22.46138,30.382866 21,30 21,28 21,26.5 22.5,25.5 23.765318,25.5 25,25.5 26.5,26.5 26.5,28 c 0,1.5 -0.5,2.5 -2,2.5 -0.247439,-0.155998 -0.306746,-0.390776 0,-0.5 1,-0.197675 1.5,-0.618181 1.5,-2 0,-1.24985 -1.5,-2 -2.273581,-2 C 23,26 21.5,26.76026 21.5,28 c 0,1.253808 0.843885,1.793475 1.5,2 0.183499,0.146041 0.192583,0.325754 0,0.5 z"
     id="path1823-9"
     inkscape:connector-curvature="0"
     sodipodi:nodetypes="ccccccccccc" />
  <path
     style="fill:#000000;fill-opacity:1;stroke:none;stroke-width:0.5px;stroke-linecap:butt;stroke-linejoin:miter;stroke-opacity:1"
     d="m 36,42 v -4 h 0.5 v 4 z"
     id="path1800-5"
     inkscape:connector-curvature="0" />
  <path
     style="fill:#000000;fill-opacity:1;stroke:none;stroke-width:0.5px;stroke-linecap:butt;stroke-linejoin:miter;stroke-opacity:1"
     d="m 35.5,40.5 c -0.53862,-0.117134 -2,-0.5 -2,-2.5 0,-1.5 1.5,-2.5 2.765318,-2.5 C 37.5,35.5 39,36.5 39,38 c 0,1.5 -0.5,2.5 -2,2.5 -0.247439,-0.155997 -0.306745,-0.390776 0,-0.5 1,-0.197674 1.5,-0.61818 1.5,-2 0,-1.24985 -1.5,-2 -2.273581,-2 C 35.5,36 34,36.76026 34,38 c 0,1.253808 0.843885,1.793475 1.5,2 0.183499,0.146042 0.192583,0.325755 0,0.5 z"
     id="path1823-4"
     inkscape:connector-curvature="0"
     sodipodi:nodetypes="ccccccccccc" />
  <path
     style="fill:#000000;fill-opacity:1;stroke:none;stroke-width:0.5px;stroke-linecap:butt;stroke-linejoin:miter;stroke-opacity:1"
     d="m 38.5,54.5 v -4 H 39 v 4 z"
     id="path1800-59"
     inkscape:connector-curvature="0" />
  <path
     style="fill:#000000;fill-opacity:1;stroke:none;stroke-width:0.5px;stroke-linecap:butt;stroke-linejoin:miter;stroke-opacity:1"
     d="M 38,53 C 37.46138,52.882865 36,52.5 36,50.5 36,49 37.5,48 38.765318,48 40,48 41.5,49 41.5,50.5 c 0,1.5 -0.5,2.5 -2,2.5 -0.247439,-0.155995 -0.306746,-0.390775 0,-0.5 1,-0.197675 1.5,-0.618181 1.5,-2 0,-1.24985 -1.5,-2 -2.273581,-2 C 38,48.5 36.5,49.26026 36.5,50.5 c 0,1.253808 0.843885,1.793475 1.5,2 0.183499,0.14604 0.192583,0.325755 0,0.5 z"
     id="path1823-46"
     inkscape:connector-curvature="0"
     sodipodi:nodetypes="ccccccccccc" />
  <path
     style="fill:#000000;fill-opacity:1;stroke:none;stroke-width:0.5px;stroke-linecap:butt;stroke-linejoin:miter;stroke-opacity:1"
     d="m 13.5,54.5 v -4 H 14 v 4 z"
     id="path1800-2"
     inkscape:connector-curvature="0" />
  <path
     style="fill:#000000;fill-opacity:1;stroke:none;stroke-width:0.5px;stroke-linecap:butt;stroke-linejoin:miter;stroke-opacity:1"
     d="M 13,53 C 12.46138,52.882865 11,52.5 11,50.5 11,49 12.5,48 13.765318,48 15,48 16.5,49 16.5,50.5 c 0,1.5 -0.5,2.5 -2,2.5 -0.247439,-0.155995 -0.306745,-0.390775 0,-0.5 1,-0.197675 1.5,-0.618181 1.5,-2 0,-1.24985 -1.5,-2 -2.273581,-2 C 13,48.5 11.5,49.26026 11.5,50.5 c 0,1.253808 0.843885,1.793475 1.5,2 0.183499,0.14604 0.192583,0.325755 0,0.5 z"
     id="path1823-2"
     inkscape:connector-curvature="0"
     sodipodi:nodetypes="ccccccccccc" />
  <path
     style="fill:#000000;fill-opacity:1;stroke:none;stroke-width:0.5px;stroke-linecap:butt;stroke-linejoin:miter;stroke-opacity:1"
     d="m 51,34.5 v -4 h 0.5 v 4 z"
     id="path1800-7"
     inkscape:connector-curvature="0" />
  <path
     style="fill:#000000;fill-opacity:1;stroke:none;stroke-width:0.5px;stroke-linecap:butt;stroke-linejoin:miter;stroke-opacity:1"
     d="m 50.5,33 c -0.53862,-0.117134 -2,-0.5 -2,-2.5 C 48.5,29 50,28 51.265318,28 52.5,28 54,29 54,30.5 54,32 53.5,33 52,33 c -0.247439,-0.155997 -0.306746,-0.390776 0,-0.5 1,-0.197674 1.5,-0.618181 1.5,-2 0,-1.24985 -1.5,-2 -2.273581,-2 C 50.5,28.5 49,29.26026 49,30.5 c 0,1.253808 0.843885,1.793475 1.5,2 0.183499,0.146042 0.192583,0.325755 0,0.5 z"
     id="path1823-5"
     inkscape:connector-curvature="0"
     sodipodi:nodetypes="ccccccccccc" />
  <path
     style="fill:#000000;fill-opacity:1;stroke:none;stroke-width:0.5px;stroke-linecap:butt;stroke-linejoin:miter;stroke-opacity:1"
     d="M 18.5,42 V 38 H 19 v 4 z"
     id="path1800-1"
     inkscape:connector-curvature="0" />
  <path
     style="fill:#000000;fill-opacity:1;stroke:none;stroke-width:0.5px;stroke-linecap:butt;stroke-linejoin:miter;stroke-opacity:1"
     d="M 18,40.5 C 17.46138,40.382866 16,40 16,38 16,36.5 17.5,35.5 18.765318,35.5 20,35.5 21.5,36.5 21.5,38 c 0,1.5 -0.5,2.5 -2,2.5 -0.247439,-0.155997 -0.306745,-0.390776 0,-0.5 1,-0.197674 1.5,-0.61818 1.5,-2 0,-1.24985 -1.5,-2 -2.273581,-2 C 18,36 16.5,36.76026 16.5,38 c 0,1.253808 0.843885,1.793475 1.5,2 0.183499,0.146042 0.192583,0.325755 0,0.5 z"
     id="path1823-28"
     inkscape:connector-curvature="0"
     sodipodi:nodetypes="ccccccccccc" />
  <path
     style="fill:#000000;fill-opacity:1;stroke:none;stroke-width:0.5px;stroke-linecap:butt;stroke-linejoin:miter;stroke-opacity:1"
     d="m 48.5,59.5 v -4 H 49 v 4 z"
     id="path1800-6"
     inkscape:connector-curvature="0" />
  <path
     style="fill:#000000;fill-opacity:1;stroke:none;stroke-width:0.5px;stroke-linecap:butt;stroke-linejoin:miter;stroke-opacity:1"
     d="M 48,58 C 47.46138,57.882865 46,57.5 46,55.5 46,54 47.5,53 48.765318,53 50,53 51.5,54 51.5,55.5 c 0,1.5 -0.5,2.5 -2,2.5 -0.247439,-0.155995 -0.306746,-0.390775 0,-0.5 1,-0.197675 1.5,-0.61818 1.5,-2 0,-1.24985 -1.5,-2 -2.273581,-2 C 48,53.5 46.5,54.26026 46.5,55.5 c 0,1.25381 0.843885,1.793475 1.5,2 0.183499,0.14604 0.192583,0.325755 0,0.5 z"
     id="path1823-8"
     inkscape:connector-curvature="0"
     sodipodi:nodetypes="ccccccccccc" />
  <path
     style="fill:#000000;fill-opacity:1;stroke:none;stroke-width:0.5px;stroke-linecap:butt;stroke-linejoin:miter;stroke-opacity:1"
     d="m 6,34.5 v -4 h 0.5 v 4 z"
     id="path1800-10"
     inkscape:connector-curvature="0" />
  <path
     style="fill:#000000;fill-opacity:1;stroke:none;stroke-width:0.5px;stroke-linecap:butt;stroke-linejoin:miter;stroke-opacity:1"
     d="M 5.5,33 C 4.96138,32.882866 3.5,32.5 3.5,30.5 3.5,29 5,28 6.265318,28 7.5,28 9,29 9,30.5 9,32 8.5,33 7,33 6.752561,32.844003 6.693255,32.609224 7,32.5 8,32.302326 8.5,31.881819 8.5,30.5 8.5,29.25015 7,28.5 6.226419,28.5 5.5,28.5 4,29.26026 4,30.5 c 0,1.253808 0.843885,1.793475 1.5,2 0.183499,0.146042 0.192584,0.325755 0,0.5 z"
     id="path1823-51"
     inkscape:connector-curvature="0"
     sodipodi:nodetypes="ccccccccccc" />
  <path
     style="fill:#000000;fill-opacity:1;stroke:none;stroke-width:0.5px;stroke-linecap:butt;stroke-linejoin:miter;stroke-opacity:1"
     d="M 38.5,12 V 8 H 39 v 4 z"
     id="path1800-08"
     inkscape:connector-curvature="0" />
  <path
     style="fill:#000000;fill-opacity:1;stroke:none;stroke-width:0.5px;stroke-linecap:butt;stroke-linejoin:miter;stroke-opacity:1"
     d="M 38,10.5 C 37.46138,10.382866 36,10 36,8 36,6.5 37.5,5.5 38.765318,5.5 40,5.5 41.5,6.5 41.5,8 c 0,1.5 -0.5,2.5 -2,2.5 -0.247439,-0.155998 -0.306746,-0.390776 0,-0.5 C 40.5,9.802325 41,9.38182 41,8 41,6.750151 39.5,6 38.726419,6 38,6 36.5,6.76026 36.5,8 c 0,1.253808 0.843885,1.793475 1.5,2 0.183499,0.146042 0.192583,0.325754 0,0.5 z"
     id="path1823-50"
     inkscape:connector-curvature="0"
     sodipodi:nodetypes="ccccccccccc" />
  <path
     style="fill:#000000;fill-opacity:1;stroke:none;stroke-width:0.5px;stroke-linecap:butt;stroke-linejoin:miter;stroke-opacity:1"
     d="m 51,47 v -4 h 0.5 v 4 z"
     id="path1800-4"
     inkscape:connector-curvature="0" />
  <path
     style="fill:#000000;fill-opacity:1;stroke:none;stroke-width:0.5px;stroke-linecap:butt;stroke-linejoin:miter;stroke-opacity:1"
     d="m 50.5,45.5 c -0.53862,-0.117134 -2,-0.5 -2,-2.5 0,-1.5 1.5,-2.5 2.765318,-2.5 C 52.5,40.5 54,41.5 54,43 c 0,1.5 -0.5,2.5 -2,2.5 -0.247439,-0.155997 -0.306746,-0.390776 0,-0.5 1,-0.197674 1.5,-0.61818 1.5,-2 0,-1.24985 -1.5,-2 -2.273581,-2 C 50.5,41 49,41.76026 49,43 c 0,1.253808 0.843885,1.793475 1.5,2 0.183499,0.146042 0.192583,0.325755 0,0.5 z"
     id="path1823-6"
     inkscape:connector-curvature="0"
     sodipodi:nodetypes="ccccccccccc" />
</svg>
