<?xml version="1.0" encoding="UTF-8" standalone="no"?>
<!-- Created with Inkscape (http://www.inkscape.org/) -->

<svg
   xmlns:dc="http://purl.org/dc/elements/1.1/"
   xmlns:cc="http://creativecommons.org/ns#"
   xmlns:rdf="http://www.w3.org/1999/02/22-rdf-syntax-ns#"
   xmlns:svg="http://www.w3.org/2000/svg"
   xmlns="http://www.w3.org/2000/svg"
   xmlns:sodipodi="http://sodipodi.sourceforge.net/DTD/sodipodi-0.dtd"
   xmlns:inkscape="http://www.inkscape.org/namespaces/inkscape"
   version="1.1"
   id="svg3836"
   width="64"
   height="64"
   viewBox="0 0 64 64"
   sodipodi:docname="swamp.svg"
   inkscape:version="0.92.2 (5c3e80d, 2017-08-06)">
  <metadata
     id="metadata3842">
    <rdf:RDF>
      <cc:Work
         rdf:about="">
        <dc:format>image/svg+xml</dc:format>
        <dc:type
           rdf:resource="http://purl.org/dc/dcmitype/StillImage" />
        <dc:title />
      </cc:Work>
    </rdf:RDF>
  </metadata>
  <defs
     id="defs3840" />
  <sodipodi:namedview
     pagecolor="#ffffff"
     bordercolor="#666666"
     borderopacity="1"
     objecttolerance="10"
     gridtolerance="10"
     guidetolerance="10"
     inkscape:pageopacity="0"
     inkscape:pageshadow="2"
     inkscape:window-width="1864"
     inkscape:window-height="1051"
     id="namedview3838"
     showgrid="true"
     inkscape:zoom="12.007217"
     inkscape:cx="26.176938"
     inkscape:cy="32.341473"
     inkscape:window-x="56"
     inkscape:window-y="0"
     inkscape:window-maximized="1"
     inkscape:current-layer="svg3836"
     showguides="false">
    <inkscape:grid
       type="xygrid"
       id="grid6477" />
  </sodipodi:namedview>
  <path
     style="fill:#000000;fill-opacity:1;stroke:none;stroke-width:0.76376259px;stroke-linecap:butt;stroke-linejoin:miter;stroke-opacity:1"
     d="m 19,51 h -7 v 1 h 7 z"
     id="path6789-5"
     inkscape:connector-curvature="0"
     sodipodi:nodetypes="ccccc" />
  <path
     style="fill:#000000;fill-opacity:1;stroke:none;stroke-width:0.76376259px;stroke-linecap:butt;stroke-linejoin:miter;stroke-opacity:1"
     d="m 21,60 h -7 v 1 h 7 z"
     id="path6789-5-9"
     inkscape:connector-curvature="0"
     sodipodi:nodetypes="ccccc" />
  <path
     style="fill:#000000;fill-opacity:1;stroke:none;stroke-width:0.6454972px;stroke-linecap:butt;stroke-linejoin:miter;stroke-opacity:1"
     d="m 29,50 h -5 v 1 h 5 z"
     id="path6789-5-7"
     inkscape:connector-curvature="0"
     sodipodi:nodetypes="ccccc" />
  <path
     style="fill:#000000;fill-opacity:1;stroke:none;stroke-width:0.70710677px;stroke-linecap:butt;stroke-linejoin:miter;stroke-opacity:1"
     d="m 54,44 h -6 v 1 h 6 z"
     id="path6789-5-76"
     inkscape:connector-curvature="0"
     sodipodi:nodetypes="ccccc" />
  <path
     style="fill:#000000;fill-opacity:1;stroke:none;stroke-width:0.72157502px;stroke-linecap:butt;stroke-linejoin:miter;stroke-opacity:1"
     d="m 44,56 h -6 v 1.041341 h 6 z"
     id="path6789-5-73"
     inkscape:connector-curvature="0"
     sodipodi:nodetypes="ccccc" />
  <path
     style="fill:#000000;fill-opacity:1;stroke:none;stroke-width:0.76376259px;stroke-linecap:butt;stroke-linejoin:miter;stroke-opacity:1"
     d="m 60,49 h -7 v 1 h 7 z"
     id="path6789-5-6"
     inkscape:connector-curvature="0"
     sodipodi:nodetypes="ccccc" />
  <path
     style="fill:#000000;fill-opacity:1;stroke:none;stroke-width:0.76376259px;stroke-linecap:butt;stroke-linejoin:miter;stroke-opacity:1"
     d="m 62,41 h -7 v 1 h 7 z"
     id="path6789-5-5"
     inkscape:connector-curvature="0"
     sodipodi:nodetypes="ccccc" />
  <path
     style="fill:#000000;fill-opacity:1;stroke:none;stroke-width:0.70710677px;stroke-linecap:butt;stroke-linejoin:miter;stroke-opacity:1"
     d="m 44,32 h -6 v 1 h 6 z"
     id="path6789-5-63"
     inkscape:connector-curvature="0"
     sodipodi:nodetypes="ccccc" />
  <path
     style="fill:#000000;fill-opacity:1;stroke:none;stroke-width:0.70710677px;stroke-linecap:butt;stroke-linejoin:miter;stroke-opacity:1"
     d="m 35,35 h -6 v 1 h 6 z"
     id="path6789-5-94"
     inkscape:connector-curvature="0"
     sodipodi:nodetypes="ccccc" />
  <path
     style="fill:#000000;fill-opacity:1;stroke:none;stroke-width:0.76376259px;stroke-linecap:butt;stroke-linejoin:miter;stroke-opacity:1"
     d="m 23,26 h -7 v 1 h 7 z"
     id="path6789-5-8"
     inkscape:connector-curvature="0"
     sodipodi:nodetypes="ccccc" />
  <path
     style="fill:#000000;fill-opacity:1;stroke:none;stroke-width:0.76376259px;stroke-linecap:butt;stroke-linejoin:miter;stroke-opacity:1"
     d="m 20,20 h -7 v 1 h 7 z"
     id="path6789-5-1"
     inkscape:connector-curvature="0"
     sodipodi:nodetypes="ccccc" />
  <path
     style="fill:#000000;fill-opacity:1;stroke:none;stroke-width:0.6454972px;stroke-linecap:butt;stroke-linejoin:miter;stroke-opacity:1"
     d="m 32,20 h -5 v 1 h 5 z"
     id="path6789-5-2"
     inkscape:connector-curvature="0"
     sodipodi:nodetypes="ccccc" />
  <path
     style="fill:#000000;fill-opacity:1;stroke:none;stroke-width:0.76376259px;stroke-linecap:butt;stroke-linejoin:miter;stroke-opacity:1"
     d="m 45,42 h -7 v 1 h 7 z"
     id="path6789-5-93"
     inkscape:connector-curvature="0"
     sodipodi:nodetypes="ccccc" />
  <path
     style="fill:#000000;fill-opacity:1;stroke:none;stroke-width:0.57735026px;stroke-linecap:butt;stroke-linejoin:miter;stroke-opacity:1"
     d="M 13,44 H 9 v 1 h 4 z"
     id="path6789-5-90"
     inkscape:connector-curvature="0"
     sodipodi:nodetypes="ccccc" />
  <path
     style="fill:#000000;fill-opacity:1;stroke:none;stroke-width:0.76376259px;stroke-linecap:butt;stroke-linejoin:miter;stroke-opacity:1"
     d="M 13,37 H 6 v 1 h 7 z"
     id="path6789-5-88"
     inkscape:connector-curvature="0"
     sodipodi:nodetypes="ccccc" />
  <path
     style="fill:#000000;fill-opacity:1;stroke:none;stroke-width:0.76376259px;stroke-linecap:butt;stroke-linejoin:miter;stroke-opacity:1"
     d="m 63,33 h -7 v 1 h 7 z"
     id="path6789-5-50"
     inkscape:connector-curvature="0"
     sodipodi:nodetypes="ccccc" />
  <path
     style="fill:#000000;fill-opacity:1;stroke:none;stroke-width:0.76376259px;stroke-linecap:butt;stroke-linejoin:miter;stroke-opacity:1"
     d="m 52,25 h -7 v 1 h 7 z"
     id="path6789-5-96"
     inkscape:connector-curvature="0"
     sodipodi:nodetypes="ccccc" />
  <path
     style="fill:#000000;fill-opacity:1;stroke:none;stroke-width:0.76376259px;stroke-linecap:butt;stroke-linejoin:miter;stroke-opacity:1"
     d="m 41,16 h -7 v 1 h 7 z"
     id="path6789-5-3"
     inkscape:connector-curvature="0"
     sodipodi:nodetypes="ccccc" />
  <path
     style="fill:#000000;fill-opacity:1;stroke:none;stroke-width:0.57735026px;stroke-linecap:butt;stroke-linejoin:miter;stroke-opacity:1"
     d="m 29,43 h -4 v 1 h 4 z"
     id="path6789-5-85"
     inkscape:connector-curvature="0"
     sodipodi:nodetypes="ccccc" />
  <path
     style="fill:#000000;fill-opacity:1;stroke:none;stroke-width:0.76376259px;stroke-linecap:butt;stroke-linejoin:miter;stroke-opacity:1"
     d="m 61,60 h -7 v 1 h 7 z"
     id="path6789-5-61"
     inkscape:connector-curvature="0"
     sodipodi:nodetypes="ccccc" />
  <path
     style="fill:#000000;fill-opacity:1;stroke:none;stroke-width:0.76376259px;stroke-linecap:butt;stroke-linejoin:miter;stroke-opacity:1"
     d="m 64,19 h -7 v 1 h 7 z"
     id="path6789-5-15"
     inkscape:connector-curvature="0"
     sodipodi:nodetypes="ccccc" />
  <path
     style="fill:#000000;fill-opacity:1;stroke:none;stroke-width:0.76376265px;stroke-linecap:butt;stroke-linejoin:miter;stroke-opacity:1"
     d="m 52,14 h -7 v 1 h 7 z"
     id="path6789-5-98"
     inkscape:connector-curvature="0"
     sodipodi:nodetypes="ccccc" />
  <path
     style="fill:#000000;fill-opacity:1;stroke:none;stroke-width:0.76376259px;stroke-linecap:butt;stroke-linejoin:miter;stroke-opacity:1"
     d="m 63,3 h -7 v 1 h 7 z"
     id="path6789-5-4"
     inkscape:connector-curvature="0"
     sodipodi:nodetypes="ccccc" />
  <path
     style="fill:#000000;fill-opacity:1;stroke:none;stroke-width:0.76376265px;stroke-linecap:butt;stroke-linejoin:miter;stroke-opacity:1"
     d="m 52,7 h -7 v 1 h 7 z"
     id="path6789-5-81"
     inkscape:connector-curvature="0"
     sodipodi:nodetypes="ccccc" />
  <path
     style="fill:#000000;fill-opacity:1;stroke:none;stroke-width:0.57735032px;stroke-linecap:butt;stroke-linejoin:miter;stroke-opacity:1"
     d="m 49,19 h -4 v 1 h 4 z"
     id="path6789-5-0"
     inkscape:connector-curvature="0"
     sodipodi:nodetypes="ccccc" />
  <path
     style="fill:#000000;fill-opacity:1;stroke:none;stroke-width:0.76376259px;stroke-linecap:butt;stroke-linejoin:miter;stroke-opacity:1"
     d="m 38,3 h -7 v 1 h 7 z"
     id="path6789-5-30"
     inkscape:connector-curvature="0"
     sodipodi:nodetypes="ccccc" />
  <path
     style="fill:#000000;fill-opacity:1;stroke:none;stroke-width:0.70710677px;stroke-linecap:butt;stroke-linejoin:miter;stroke-opacity:1"
     d="m 34,10 h -6 v 1 h 6 z"
     id="path6789-5-44"
     inkscape:connector-curvature="0"
     sodipodi:nodetypes="ccccc" />
  <path
     style="fill:#000000;fill-opacity:1;stroke:none;stroke-width:0.76376259px;stroke-linecap:butt;stroke-linejoin:miter;stroke-opacity:1"
     d="m 29,14 h -7 v 1 h 7 z"
     id="path6789-5-447"
     inkscape:connector-curvature="0"
     sodipodi:nodetypes="ccccc" />
  <path
     style="fill:#000000;fill-opacity:1;stroke:none;stroke-width:0.76376259px;stroke-linecap:butt;stroke-linejoin:miter;stroke-opacity:1"
     d="m 39,38 h -7 v 1 h 7 z"
     id="path6789-5-631"
     inkscape:connector-curvature="0"
     sodipodi:nodetypes="ccccc" />
  <path
     style="fill:#000000;fill-opacity:1;stroke:none;stroke-width:0.70710677px;stroke-linecap:butt;stroke-linejoin:miter;stroke-opacity:1"
     d="M 11,4 H 5 v 1 h 6 z"
     id="path6789-5-75"
     inkscape:connector-curvature="0"
     sodipodi:nodetypes="ccccc" />
  <path
     style="fill:#000000;fill-opacity:1;stroke:none;stroke-width:0.57735032px;stroke-linecap:butt;stroke-linejoin:miter;stroke-opacity:1"
     d="m 16,9 h -4 v 1 h 4 z"
     id="path6789-5-962"
     inkscape:connector-curvature="0"
     sodipodi:nodetypes="ccccc" />
  <path
     style="fill:#000000;fill-opacity:1;stroke:none;stroke-width:0.7793901px;stroke-linecap:butt;stroke-linejoin:miter;stroke-opacity:1"
     d="M 12,24 H 5 v 1.041341 h 7 z"
     id="path6789-5-17"
     inkscape:connector-curvature="0"
     sodipodi:nodetypes="ccccc" />
  <path
     style="fill:#000000;fill-opacity:1;stroke:none;stroke-width:0.70710677px;stroke-linecap:butt;stroke-linejoin:miter;stroke-opacity:1"
     d="M 19,9 V 3 h 1 v 6 z"
     id="path1800"
     inkscape:connector-curvature="0"
     sodipodi:nodetypes="ccccc" />
  <path
     style="fill:#000000;fill-opacity:1;stroke:none;stroke-width:0.5px;stroke-linecap:butt;stroke-linejoin:miter;stroke-opacity:1"
     d="M 18,8 C 17,8 15,6 15,4 15,2 16,0 19.515168,0 23,0 24,2 24,4 24,6 22,8 21,8 20.752561,7.844002 20.693255,7.109224 21,7 22,7 23,5 23,4 23,2 22,1 19.517911,1 17,1 16,2 16,4 c 0,1 1,3 2,3 0.183499,0.146042 0.192583,0.825754 0,1 z"
     id="path1823"
     inkscape:connector-curvature="0"
     sodipodi:nodetypes="ccccccccccc" />
  <path
     style="fill:#000000;fill-opacity:1;stroke:none;stroke-width:0.70710677px;stroke-linecap:butt;stroke-linejoin:miter;stroke-opacity:1"
     d="M 39,14 V 8 h 1 v 6 z"
     id="path1800-3"
     inkscape:connector-curvature="0"
     sodipodi:nodetypes="ccccc" />
  <path
     style="fill:#000000;fill-opacity:1;stroke:none;stroke-width:0.5px;stroke-linecap:butt;stroke-linejoin:miter;stroke-opacity:1"
     d="M 38,13 C 37,13 35,11 35,9 35,7 36,5 39.515168,5 43,5 44,7 44,9 c 0,2 -2,4 -3,4 -0.247439,-0.155998 -0.306745,-0.890776 0,-1 1,0 2,-2 2,-3 C 43,7 42,6 39.517911,6 37,6 36,7 36,9 c 0,1 1,3 2,3 0.183499,0.146042 0.192583,0.825754 0,1 z"
     id="path1823-1"
     inkscape:connector-curvature="0"
     sodipodi:nodetypes="ccccccccccc" />
  <path
     style="fill:#000000;fill-opacity:1;stroke:none;stroke-width:0.70710677px;stroke-linecap:butt;stroke-linejoin:miter;stroke-opacity:1"
     d="M 57,15 V 9 h 1 v 6 z"
     id="path1800-20"
     inkscape:connector-curvature="0"
     sodipodi:nodetypes="ccccc" />
  <path
     style="fill:#000000;fill-opacity:1;stroke:none;stroke-width:0.5px;stroke-linecap:butt;stroke-linejoin:miter;stroke-opacity:1"
     d="M 56,14 C 55,14 53,12 53,10 53,8 54,6 57.515168,6 61,6 62,8 62,10 c 0,2 -2,4 -3,4 -0.247439,-0.155998 -0.306745,-0.890776 0,-1 1,0 2,-2 2,-3 C 61,8 60,7 57.517911,7 55,7 54,8 54,10 c 0,1 1,3 2,3 0.183499,0.146042 0.192583,0.825754 0,1 z"
     id="path1823-6"
     inkscape:connector-curvature="0"
     sodipodi:nodetypes="ccccccccccc" />
  <path
     style="fill:#000000;fill-opacity:1;stroke:none;stroke-width:0.70710677px;stroke-linecap:butt;stroke-linejoin:miter;stroke-opacity:1"
     d="m 49,36 v -6 h 1 v 6 z"
     id="path1800-9"
     inkscape:connector-curvature="0"
     sodipodi:nodetypes="ccccc" />
  <path
     style="fill:#000000;fill-opacity:1;stroke:none;stroke-width:0.5px;stroke-linecap:butt;stroke-linejoin:miter;stroke-opacity:1"
     d="m 48,35 c -1,0 -3,-2 -3,-4 0,-2 1,-4 4.515168,-4 C 53,27 54,29 54,31 c 0,2 -2,4 -3,4 -0.247439,-0.155998 -0.306745,-0.890776 0,-1 1,0 2,-2 2,-3 0,-2 -1,-3 -3.482089,-3 C 47,28 46,29 46,31 c 0,1 1,3 2,3 0.183499,0.146042 0.192583,0.825754 0,1 z"
     id="path1823-2"
     inkscape:connector-curvature="0"
     sodipodi:nodetypes="ccccccccccc" />
  <path
     style="fill:#000000;fill-opacity:1;stroke:none;stroke-width:0.70710677px;stroke-linecap:butt;stroke-linejoin:miter;stroke-opacity:1"
     d="m 32,31 v -6 h 1 v 6 z"
     id="path1800-6"
     inkscape:connector-curvature="0"
     sodipodi:nodetypes="ccccc" />
  <path
     style="fill:#000000;fill-opacity:1;stroke:none;stroke-width:0.5px;stroke-linecap:butt;stroke-linejoin:miter;stroke-opacity:1"
     d="m 31,30 c -1,0 -3,-2 -3,-4 0,-2 1,-4 4.515168,-4 C 36,22 37,24 37,26 c 0,2 -2,4 -3,4 -0.247439,-0.155998 -0.306745,-0.890776 0,-1 1,0 2,-2 2,-3 0,-2 -1,-3 -3.482089,-3 C 30,23 29,24 29,26 c 0,1 1,3 2,3 0.183499,0.146042 0.192583,0.825754 0,1 z"
     id="path1823-4"
     inkscape:connector-curvature="0"
     sodipodi:nodetypes="ccccccccccc" />
  <path
     style="fill:#000000;fill-opacity:1;stroke:none;stroke-width:0.70710677px;stroke-linecap:butt;stroke-linejoin:miter;stroke-opacity:1"
     d="m 4,35 v -6 h 1 v 6 z"
     id="path1800-50"
     inkscape:connector-curvature="0"
     sodipodi:nodetypes="ccccc" />
  <path
     style="fill:#000000;fill-opacity:1;stroke:none;stroke-width:0.5px;stroke-linecap:butt;stroke-linejoin:miter;stroke-opacity:1"
     d="M 3,34 C 2,34 0,32 0,30 0,28 1,26 4.515168,26 8,26 9,28 9,30 9,32 7,34 6,34 5.752561,33.844002 5.693255,33.109224 6,33 7,33 8,31 8,30 8,28 7,27 4.517911,27 2,27 1,28 1,30 c 0,1 1,3 2,3 0.183499,0.146042 0.192583,0.825754 0,1 z"
     id="path1823-48"
     inkscape:connector-curvature="0"
     sodipodi:nodetypes="ccccccccccc" />
  <path
     style="fill:#000000;fill-opacity:1;stroke:none;stroke-width:0.70710677px;stroke-linecap:butt;stroke-linejoin:miter;stroke-opacity:1"
     d="m 20,43 v -6 h 1 v 6 z"
     id="path1800-1"
     inkscape:connector-curvature="0"
     sodipodi:nodetypes="ccccc" />
  <path
     style="fill:#000000;fill-opacity:1;stroke:none;stroke-width:0.5px;stroke-linecap:butt;stroke-linejoin:miter;stroke-opacity:1"
     d="m 19,42 c -1,0 -3,-2 -3,-4 0,-2 1,-4 4.515168,-4 C 24,34 25,36 25,38 c 0,2 -2,4 -3,4 -0.247439,-0.155998 -0.306745,-0.890776 0,-1 1,0 2,-2 2,-3 0,-2 -1,-3 -3.482089,-3 C 18,35 17,36 17,38 c 0,1 1,3 2,3 0.183499,0.146042 0.192583,0.825754 0,1 z"
     id="path1823-7"
     inkscape:connector-curvature="0"
     sodipodi:nodetypes="ccccccccccc" />
  <path
     style="fill:#000000;fill-opacity:1;stroke:none;stroke-width:0.70710677px;stroke-linecap:butt;stroke-linejoin:miter;stroke-opacity:1"
     d="m 5,62 v -6 h 1 v 6 z"
     id="path1800-7"
     inkscape:connector-curvature="0"
     sodipodi:nodetypes="ccccc" />
  <path
     style="fill:#000000;fill-opacity:1;stroke:none;stroke-width:0.5px;stroke-linecap:butt;stroke-linejoin:miter;stroke-opacity:1"
     d="M 4,61 C 3,61 1,59 1,57 1,55 2,53 5.515168,53 9,53 10,55 10,57 10,59 8,61 7,61 6.752561,60.844002 6.693255,60.109224 7,60 8,60 9,58 9,57 9,55 8,54 5.517911,54 3,54 2,55 2,57 c 0,1 1,3 2,3 0.183499,0.146042 0.192583,0.825754 0,1 z"
     id="path1823-22"
     inkscape:connector-curvature="0"
     sodipodi:nodetypes="ccccccccccc" />
  <path
     style="fill:#000000;fill-opacity:1;stroke:none;stroke-width:0.70710677px;stroke-linecap:butt;stroke-linejoin:miter;stroke-opacity:1"
     d="m 38,54 v -6 h 1 v 6 z"
     id="path1800-0"
     inkscape:connector-curvature="0"
     sodipodi:nodetypes="ccccc" />
  <path
     style="fill:#000000;fill-opacity:1;stroke:none;stroke-width:0.5px;stroke-linecap:butt;stroke-linejoin:miter;stroke-opacity:1"
     d="m 37,53 c -1,0 -3,-2 -3,-4 0,-2 1,-4 4.515168,-4 C 42,45 43,47 43,49 c 0,2 -2,4 -3,4 -0.247439,-0.155998 -0.306745,-0.890776 0,-1 1,0 2,-2 2,-3 0,-2 -1,-3 -3.482089,-3 C 36,46 35,47 35,49 c 0,1 1,3 2,3 0.183499,0.146042 0.192583,0.825754 0,1 z"
     id="path1823-61"
     inkscape:connector-curvature="0"
     sodipodi:nodetypes="ccccccccccc" />
  <path
     style="fill:#000000;fill-opacity:1;stroke:none;stroke-width:0.70710677px;stroke-linecap:butt;stroke-linejoin:miter;stroke-opacity:1"
     d="m 30,64 v -6 h 1 v 6 z"
     id="path1800-94"
     inkscape:connector-curvature="0"
     sodipodi:nodetypes="ccccc" />
  <path
     style="fill:#000000;fill-opacity:1;stroke:none;stroke-width:0.5px;stroke-linecap:butt;stroke-linejoin:miter;stroke-opacity:1"
     d="m 29,63 c -1,0 -3,-2 -3,-4 0,-2 1,-4 4.515168,-4 C 34,55 35,57 35,59 c 0,2 -2,4 -3,4 -0.247439,-0.155998 -0.306745,-0.890776 0,-1 1,0 2,-2 2,-3 0,-2 -1,-3 -3.482089,-3 C 28,56 27,57 27,59 c 0,1 1,3 2,3 0.183499,0.146042 0.192583,0.825754 0,1 z"
     id="path1823-9"
     inkscape:connector-curvature="0"
     sodipodi:nodetypes="ccccccccccc" />
  <path
     style="fill:#000000;fill-opacity:1;stroke:none;stroke-width:0.70710677px;stroke-linecap:butt;stroke-linejoin:miter;stroke-opacity:1"
     d="m 49,60 v -6 h 1 v 6 z"
     id="path1800-91"
     inkscape:connector-curvature="0"
     sodipodi:nodetypes="ccccc" />
  <path
     style="fill:#000000;fill-opacity:1;stroke:none;stroke-width:0.5px;stroke-linecap:butt;stroke-linejoin:miter;stroke-opacity:1"
     d="m 48,59 c -1,0 -3,-2 -3,-4 0,-2 1,-4 4.515168,-4 C 53,51 54,53 54,55 c 0,2 -2,4 -3,4 -0.247439,-0.155998 -0.306745,-0.890776 0,-1 1,0 2,-2 2,-3 0,-2 -1,-3 -3.482089,-3 C 47,52 46,53 46,55 c 0,1 1,3 2,3 0.183499,0.146042 0.192583,0.825754 0,1 z"
     id="path1823-77"
     inkscape:connector-curvature="0"
     sodipodi:nodetypes="ccccccccccc" />
  <path
     style="fill:#000000;fill-opacity:1;stroke:none;stroke-width:0.70710677px;stroke-linecap:butt;stroke-linejoin:miter;stroke-opacity:1"
     d="m 7,20 v -6 h 1 v 6 z"
     id="path1800-15"
     inkscape:connector-curvature="0"
     sodipodi:nodetypes="ccccc" />
  <path
     style="fill:#000000;fill-opacity:1;stroke:none;stroke-width:0.5px;stroke-linecap:butt;stroke-linejoin:miter;stroke-opacity:1"
     d="M 6,19 C 5,19 3,17 3,15 3,13 4,11 7.515168,11 11,11 12,13 12,15 c 0,2 -2,4 -3,4 -0.247439,-0.155998 -0.306745,-0.890776 0,-1 1,0 2,-2 2,-3 C 11,13 10,12 7.517911,12 5,12 4,13 4,15 c 0,1 1,3 2,3 0.183499,0.146042 0.192583,0.825754 0,1 z"
     id="path1823-97"
     inkscape:connector-curvature="0"
     sodipodi:nodetypes="ccccccccccc" />
</svg>
